PathFileType	4	(X/Y/Z)	12_coords_data.trc
DataRate	CameraRate	NumFrames	NumMarkers	Units	OrigDataRate	OrigDataStartFrame	OrigNumFrames
30.0	30.0	9	21	m	30.0	1	64
Frame#	Time	THUMB_TIP	THUMB_IP	THUMB_MCP	THUMB_CMC	INDEX_TIP	INDEX_DIP	INDEX_PIP	INDEX_MCP	MIDDLE_TIP	MIDDLE_DIP	MIDDLE_PIP	MIDDLE_MCP	RING_TIP	RING_DIP	RING_PIP	RING_MCP	PINKY_TIP	PINKY_DIP	PINKY_PIP	PINKY_MCP	WRIST
X1	Y1	Z1	X2	Y2	Z2	X3	Y3	Z3	X4	Y4	Z4	X5	Y5	Z5	X6	Y6	Z6	X7	Y7	Z7	X8	Y8	Z8	X9	Y9	Z9	X10	Y10	Z10	X11	Y11	Z11	X12	Y12	Z12	X13	Y13	Z13	X14	Y14	Z14	X15	Y15	Z15	X16	Y16	Z16	X17	Y17	Z17	X18	Y18	Z18	X19	Y19	Z19	X20	Y20	Z20	X21	Y21	Z21
0	-2.749317978547796e-18	0.5459924566079638	-0.01376885686577023	-0.12103763661014186	0.5235319510110056	-0.016627066356677322	-0.12495635155704733	0.493443781488649	-0.018597106914054362	-0.11723359330651155	0.4756454420273394	-0.026464026987908618	-0.0770935798414966	0.5604102414739647	0.03159207931483721	-0.15670358363625286	0.5497575155714494	0.04130286520216264	-0.14573909238966967	0.5313397106019297	0.047520570815915875	-0.1297974980526706	0.5008516545121229	0.028421355395312986	-0.10700858627123186	0.510746373792641	-0.007343798421552861	-0.11124323630659598	0.5275550480322022	-0.006083186544013963	-0.11786738364814246	0.5455447507046193	0.01680618867303263	-0.11650479422675017	0.5142999494054934	0.029088301483683576	-0.08702497031810727	0.5142512097381643	-0.019847853214246203	-0.0983438954075698	0.5314143553551955	-0.015421032948476077	-0.10163474558087678	0.5508846265954673	-8.922298947100504e-05	-0.09918033725885754	0.5275585785206071	0.018791842956277116	-0.0720856576342222	0.6034432661112907	0.009860181759764663	-0.08166118540174361	0.587066946460687	0.006919678475218238	-0.07764004189089771	0.5667716514902398	0.0032810798739631997	-0.07368104943302624	0.5321442671375276	-0.004302825714809111	-0.06702431750886556	0.4622830810018609	-0.023011742144276925	-0.051989820119430985
1	0.03333333333333339	0.5459328897236225	-0.013816030178972039	-0.12118882014302104	0.5234495588434757	-0.016590885311471903	-0.12503589845356647	0.49337270320606097	-0.01846718168090078	-0.11724601611169608	0.47565278712904335	-0.02644226495983859	-0.0770926523557483	0.5599894033039732	0.02953915823186226	-0.1564970172361139	0.5497743160708479	0.03991997532776681	-0.1457317662292391	0.5315802419812323	0.04696204445936569	-0.12987633298484746	0.5007783683037066	0.028513591343852895	-0.10697359844072639	0.5108680137423555	-0.007121571738229471	-0.11140081113940048	0.5277004272989201	-0.005977295630945623	-0.11798567909943405	0.5456744216570432	0.016913886253148824	-0.11645634304628141	0.5143548868662349	0.029052594344900484	-0.08699643083747476	0.5143257451990799	-0.019982922112819934	-0.0984141390551542	0.5314757746444245	-0.015418158126549897	-0.10158264339844685	0.5510004479589357	-0.00015698050143442277	-0.09912021198695607	0.5276167668271059	0.018710436870440383	-0.07206573264544244	0.6035166337813908	0.009647818564335164	-0.08154509064935028	0.5871274615939932	0.006743465109896873	-0.07755012306205702	0.5668339202669039	0.0031141418890485717	-0.07357366579907393	0.53217943485705	-0.004378886139785987	-0.0669551597034861	0.4622830810018609	-0.023011742144276925	-0.051989820119430985
2	0.06666666666666676	0.5458709790270451	-0.013961380695408643	-0.12132011617582318	0.5233722028372552	-0.016690475984038722	-0.1251091937505531	0.49330366419909966	-0.01848330164305323	-0.11726771682830607	0.47566738607848436	-0.026473596343976835	-0.07708056857610107	0.5596331393831525	0.027810620179643197	-0.1564136866086491	0.5497564232890643	0.03870145609911069	-0.1458382352153507	0.5317411052743966	0.046383811872477754	-0.130076269614519	0.5007082242555461	0.028483903948925526	-0.10705042139999668	0.5109535146397333	-0.007065804400705367	-0.11152877204584234	0.527800210355911	-0.0060077670448509535	-0.11809150016760214	0.5457609111678937	0.016888494215543948	-0.1164840187094863	0.5143788347076869	0.028978589483708683	-0.08707070889143906	0.5143768496217531	-0.020148036916106893	-0.09845053486245386	0.5315173929976293	-0.015497317922370968	-0.1015444944001673	0.5510783148744473	-0.0002790804245849099	-0.0991040924271288	0.5276502210274038	0.018632363881696867	-0.07211886448767028	0.6035674231813197	0.009445721839733245	-0.08151582210204465	0.5871697020857167	0.0065792254729731825	-0.0775285998295643	0.5668754919971639	0.0029755589426825324	-0.07353227108681205	0.5322033769872171	-0.00443681305748822	-0.06691527531319166	0.4622830810018609	-0.023011742144276925	-0.051989820119430985
3	0.10000000000000014	0.5458073878193671	-0.014185446084182263	-0.12143472753374046	0.52329915627279	-0.016900404918832712	-0.12517752210088234	0.4932365121319958	-0.01861995543098549	-0.11729713040375678	0.47568710757765076	-0.026548005735653968	-0.07705965510827405	0.5593599676484693	0.026391445465584362	-0.15645084810108953	0.5497202939345761	0.037649833901705065	-0.14604290015199314	0.5318345739637761	0.04580579468886736	-0.1303715518448309	0.5006420899001195	0.02835343389929934	-0.1072181474556426	0.5110059307383522	-0.007150494091741844	-0.11162973735687667	0.5278590080581647	-0.006151488689308815	-0.11818532833392303	0.5458096072382825	0.016752488325644688	-0.11657493211769608	0.5143767346784007	0.028873708840683854	-0.08722874911444976	0.5144053688034037	-0.020336818636903176	-0.09845992526082276	0.5315402573032256	-0.01564328533896253	-0.10152037314957979	0.5511222253915669	-0.0004448718638646598	-0.0991256429712173	0.5276628715627427	0.018557717738247215	-0.07223175629881998	0.6035987360131377	0.00925299072816721	-0.08156155465390028	0.5871962078169026	0.006425651104690511	-0.07756615487099598	0.5668993650296269	0.0028613641425041525	-0.0735479400534681	0.5322177868985355	-0.0044799931300063545	-0.06690143249427938	0.4622830810018609	-0.023011742144276925	-0.051989820119431
4	0.13333333333333353	0.545742382040875	-0.01446854002347886	-0.12153534254695295	0.5232294479122763	-0.017194737539038885	-0.12524150552603658	0.49317086563612955	-0.018851239361879046	-0.11733216716818151	0.47570976413073207	-0.026655495409620866	-0.07703212347391866	0.5591773089426191	0.025266716297974168	-0.1565964341568835	0.5496774880485541	0.036767432912235276	-0.1463257515924606	0.5318718289578681	0.04524713447575246	-0.13073527376976513	0.5005806220534539	0.02814325759307057	-0.10745537127754651	0.5110285648187051	-0.007348810421521801	-0.11170643838972476	0.5278815297166307	-0.0063847598384539905	-0.11826754962354585	0.5458255574881747	0.016528389997195303	-0.11671546008259104	0.5143535144989114	0.028745378302012847	-0.08745108536106476	0.5144129703337001	-0.020541826791981466	-0.09844814300913456	0.5315455630986001	-0.015840840847494597	-0.10151000458370513	0.5511361044816239	-0.0006436730689176606	-0.09917831874941592	0.5276586182872698	0.01848652948010776	-0.07239093689849263	0.6036135592940601	0.00906854043984584	-0.08167017685265385	0.5872094211693288	0.00628127015431712	-0.0776532904041538	0.5669084396250174	0.002767491033934477	-0.07361156754988918	0.532224308099586	-0.004511833674147536	-0.06691038085491602	0.4622830810018609	-0.023011742144276925	-0.051989820119431
5	0.1666666666666669	0.5456760488976293	-0.014790837644279131	-0.12162455485394363	0.5231620120747529	-0.017547228593014497	-0.12530157197056055	0.49310626293382875	-0.019151031699108367	-0.11737063512963702	0.47573317358842515	-0.0267860714645638	-0.07700020121598505	0.5590847514769653	0.024423983708234842	-0.1568312853762382	0.5496359369821339	0.03605740233628063	-0.14666351887287563	0.5318632408130682	0.04472661571282788	-0.13113980013946733	0.5005244610908599	0.027874603192388214	-0.10774051268164382	0.5110250197125132	-0.007633374935585691	-0.1117617650954795	0.5278726775601703	-0.006683514850245431	-0.1183385569324285	0.5458137681809206	0.01623881471791322	-0.11689162068409514	0.5143142000907508	0.028601128980708768	-0.08771803130601843	0.5144019150867706	-0.020755054080614843	-0.09842051728516471	0.5315346892047136	-0.016074813195857907	-0.10151299142154684	0.5511239540974235	-0.000864800458865389	-0.09925551661465161	0.5276413985394802	0.018418819362663097	-0.07258282599209037	0.6036148433275985	0.008891161491600408	-0.08182939646471796	0.5872117515857881	0.006144506982586173	-0.07778038790485363	0.566905572154305	0.002689797737225774	-0.07371392999575896	0.5322245527747401	-0.004535759155649077	-0.06693885262482968	0.4622830810018609	-0.023011742144276925	-0.05198982011943097
6	0.20000000000000023	0.5456084665316229	-0.015132447408090943	-0.12170518007001949	0.5230958026422583	-0.017931481249078063	-0.12535831217295654	0.4930422755607695	-0.019493136139946077	-0.11741056129839761	0.4757552053298778	-0.026929736577554264	-0.07696622700095132	0.5590765672681551	0.023854011580533463	-0.15713121947450004	0.5496009579217145	0.03552412208201727	-0.147030657688302	0.5318186170496384	0.04426296076528913	-0.13155710332684248	0.5004743763876612	0.02756900211417912	-0.10805207373998404	0.5109992140117394	-0.00797649982416715	-0.11179880302773458	0.5278376036306462	-0.007023513329227238	-0.11839883725358183	0.5457794306763692	0.015906504235362662	-0.1170893767734748	0.5142639950670055	0.02844866582965755	-0.08800984063730775	0.5143748874127658	-0.020968309648613848	-0.09838228002050946	0.531509218633158	-0.01633010741224894	-0.10152898840300642	0.5510899621130878	-0.0010975936818736765	-0.09935068878469955	0.5276152368857249	0.018354635916316253	-0.07279378999814842	0.6036055648352547	0.008719568689808166	-0.08202682967496748	0.5872056274669711	0.0060137311815205985	-0.07793775915770859	0.5668936187366148	0.002624087898590033	-0.07384573780483071	0.5322201168862222	-0.004555207851986043	-0.06698356373558867	0.4622830810018608	-0.023011742144276925	-0.05198982011943097
7	0.23333333333333361	0.5455398200086252	-0.015473472338299876	-0.1217804652922404	0.5230298696421072	-0.01832107769209046	-0.12541272054840724	0.4929785854328319	-0.019851396759776763	-0.117450406756271	0.47577381093581117	-0.027076489844572893	-0.07693270982736482	0.559143527629189	0.023550538600560555	-0.1574687472177887	0.5495760267900156	0.03517319863619306	-0.14740014744480504	0.5317473988122821	0.04387500335874628	-0.13195901885904	0.5004313621900421	0.02724837101697941	-0.10836882934631575	0.5109553699926888	-0.008350383919175308	-0.11182085244570805	0.5277817338687364	-0.007380494241350677	-0.11844903415140144	0.5457280723844365	0.015554334702506334	-0.11729486553464016	0.5142083252303083	0.02829590199593035	-0.08830683484528537	0.5143348512607572	-0.021173503470999888	-0.09833887035667774	0.5314709422902208	-0.01659172178277457	-0.101557823725613	0.5510385680429417	-0.0013314366542078737	-0.09945741919402815	0.5275842755926183	0.01829408185551995	-0.0730101882826636	0.6035887737452659	0.008552440185795485	-0.08225007327351161	0.5871935344568789	0.005887296453782498	-0.07811568848684175	0.5668754672048163	0.002566128473739382	-0.07399767860475145	0.5322125917654004	-0.004573628577968947	-0.06704121495472622	0.4622830810018608	-0.023011742144276925	-0.051989820119430985
7	0.2666666666666655	0.5454704621007623	-0.01579405731724859	-0.12185419078804946	0.5229633985005557	-0.01868967747746242	-0.12546631924423965	0.4929150250810891	-0.020199780152470592	-0.11748917409354671	0.47578703858879756	-0.027216331647780256	-0.07690235253982625	0.5592741818206884	0.023509525355949412	-0.15781440667275454	0.5495633490894843	0.0350112065029744	-0.147744100894937	0.5316587965968977	0.043581752430305265	-0.1323174170144745	0.5003966837748333	0.026935026147205332	-0.10866994569181374	0.5108979777618232	-0.00872726288975978	-0.11183142635848888	0.5277107611367381	-0.007730290222515257	-0.11848998180910669	0.5456656311798332	0.015205300249011122	-0.11749455152124189	0.5141528475934827	0.02815095930789302	-0.08858949481534642	0.51428491683208	-0.02136283291293517	-0.09829613571528638	0.5314218439684554	-0.016844751966105243	-0.10159956921400495	0.5509744846420649	-0.001555772565435487	-0.09956946316391498	0.5275527854969052	0.01823732674422185	-0.07321840886106652	0.603567622864027	0.008388446826989804	-0.08248675917143344	0.5871780395330843	0.005763569629786414	-0.07830446578888722	0.5668540568586236	0.0025116643679570227	-0.0741604508979509	0.5322035721298616	-0.00459447741743757	-0.06710849315646483	0.462283081001861	-0.023011742144276925	-0.051989820119430985
